{
  "accessors": [
    {
      "bufferView": 2,
      "componentType": 5126,
      "count": 4208,
      "max": [
        6.91746187210083,
        2.41650390625,
        13.496397972106934
      ],
      "min": [
        -10.636922836303711,
        1.6675139665603638,
        -7.173529148101807
      ],
      "type": "VEC3"
    },
    {
      "bufferView": 2,
      "byteOffset": 50496,
      "componentType": 5126,
      "count": 4208,
      "max": [
        0.9999911785125732,
        1.0,
        0.9995529055595398
      ],
      "min": [
        -0.9999048709869385,
        0.0,
        -0.9981864094734192
      ],
      "type": "VEC3"
    },
    {
      "bufferView": 1,
      "componentType": 5126,
      "count": 4208,
      "max": [
        0.9862440228462219,
        0.9933500289916992
      ],
      "min": [
        0.434689998626709,
        0.3308179974555969
      ],
      "type": "VEC2"
    },
    {
      "bufferView": 0,
      "componentType": 5125,
      "count": 8706,
      "type": "SCALAR"
    },
    {
      "bufferView": 2,
      "byteOffset": 100992,
      "componentType": 5126,
      "count": 65532,
      "max": [
        7.013125896453857,
        2.41650390625,
        13.605939865112305
      ],
      "min": [
        -10.636922836303711,
        -2.0127789974212646,
        -7.173529148101807
      ],
      "type": "VEC3"
    },
    {
      "bufferView": 2,
      "byteOffset": 887376,
      "componentType": 5126,
      "count": 65532,
      "max": [
        1.0,
        0.9998558759689331,
        0.9999905824661255
      ],
      "min": [
        -1.0,
        -1.0,
        -0.9999997615814209
      ],
      "type": "VEC3"
    },
    {
      "bufferView": 1,
      "byteOffset": 33664,
      "componentType": 5126,
      "count": 65532,
      "max": [
        0.9997419714927673,
        0.9055590033531189
      ],
      "min": [
        0.00024399999529123306,
        0.00028899998869746923
      ],
      "type": "VEC2"
    },
    {
      "bufferView": 0,
      "byteOffset": 34824,
      "componentType": 5125,
      "count": 252759,
      "type": "SCALAR"
    },
    {
      "bufferView": 2,
      "byteOffset": 1673760,
      "componentType": 5126,
      "count": 31713,
      "max": [
        6.461972236633301,
        2.352724075317383,
        13.605939865112305
      ],
      "min": [
        -10.583928108215332,
        -1.9548239707946777,
        -4.696010112762451
      ],
      "type": "VEC3"
    },
    {
      "bufferView": 2,
      "byteOffset": 2054316,
      "componentType": 5126,
      "count": 31713,
      "max": [
        0.9999979734420776,
        0.9987566471099854,
        0.9999916553497314
      ],
      "min": [
        -1.0,
        -0.9999998807907104,
        -0.9999982118606567
      ],
      "type": "VEC3"
    },
    {
      "bufferView": 1,
      "byteOffset": 557920,
      "componentType": 5126,
      "count": 31713,
      "max": [
        0.9997429847717285,
        0.8493649959564209
      ],
      "min": [
        0.00024399999529123306,
        0.0002479999966453761
      ],
      "type": "VEC2"
    },
    {
      "bufferView": 0,
      "byteOffset": 1045860,
      "componentType": 5125,
      "count": 101829,
      "type": "SCALAR"
    }
  ],
  "asset": {
    "extras": {
      "author": "Austin Beaulier (https://sketchfab.com/Austin.Beaulier)",
      "license": "SKETCHFAB Standard (https://sketchfab.com/licenses)",
      "source": "https://sketchfab.com/3d-models/bunker-hill-by-michael-c-mcmillen-scan-6b26a03bcda84b0fbdb8576678725785",
      "title": "Bunker Hill by Michael C. McMillen scan"
    },
    "generator": "Sketchfab-16.15.0",
    "version": "2.0"
  },
  "bufferViews": [
    {
      "buffer": 0,
      "byteLength": 1453176,
      "name": "floatBufferViews",
      "target": 34963
    },
    {
      "buffer": 0,
      "byteLength": 811624,
      "byteOffset": 1453176,
      "byteStride": 8,
      "name": "floatBufferViews",
      "target": 34962
    },
    {
      "buffer": 0,
      "byteLength": 2434872,
      "byteOffset": 2264800,
      "byteStride": 12,
      "name": "floatBufferViews",
      "target": 34962
    }
  ],
  "buffers": [
    {
      "byteLength": 4699672,
      "uri": "scene.bin"
    }
  ],
  "extensionsUsed": [
    "KHR_materials_specular"
  ],
  "images": [
    {
      "uri": "textures/BunkerHill_u1_v1_baseColor.png"
    }
  ],
  "materials": [
    {
      "doubleSided": true,
      "extensions": {
        "KHR_materials_specular": {
          "specularColorFactor": [
            1.0,
            1.0,
            1.0
          ],
          "specularFactor": 0.0
        }
      },
      "name": "BunkerHill_u1_v1",
      "pbrMetallicRoughness": {
        "baseColorTexture": {
          "index": 0
        },
        "metallicFactor": 0.0
      }
    }
  ],
  "meshes": [
    {
      "name": "Object_0",
      "primitives": [
        {
          "attributes": {
            "NORMAL": 1,
            "POSITION": 0,
            "TEXCOORD_0": 2
          },
          "indices": 3,
          "material": 0,
          "mode": 4
        }
      ]
    },
    {
      "name": "Object_1",
      "primitives": [
        {
          "attributes": {
            "NORMAL": 5,
            "POSITION": 4,
            "TEXCOORD_0": 6
          },
          "indices": 7,
          "material": 0,
          "mode": 4
        }
      ]
    },
    {
      "name": "Object_2",
      "primitives": [
        {
          "attributes": {
            "NORMAL": 9,
            "POSITION": 8,
            "TEXCOORD_0": 10
          },
          "indices": 11,
          "material": 0,
          "mode": 4
        }
      ]
    }
  ],
  "nodes": [
    {
      "children": [
        1
      ],
      "matrix": [
        1.0,
        0.0,
        0.0,
        0.0,
        0.0,
        2.220446049250313e-16,
        -1.0,
        0.0,
        0.0,
        1.0,
        2.220446049250313e-16,
        0.0,
        0.0,
        0.0,
        0.0,
        1.0
      ],
      "name": "Sketchfab_model"
    },
    {
      "children": [
        2,
        3,
        4
      ],
      "name": "BunkerHill.obj.cleaner.materialmerger.gles"
    },
    {
      "mesh": 0,
      "name": "Object_2"
    },
    {
      "mesh": 1,
      "name": "Object_3"
    },
    {
      "mesh": 2,
      "name": "Object_4"
    }
  ],
  "samplers": [
    {
      "magFilter": 9729,
      "minFilter": 9987,
      "wrapS": 10497,
      "wrapT": 10497
    }
  ],
  "scene": 0,
  "scenes": [
    {
      "name": "Sketchfab_Scene",
      "nodes": [
        0
      ]
    }
  ],
  "textures": [
    {
      "sampler": 0,
      "source": 0
    }
  ]
}
