{
	"asset":{
		"generator":"Khronos glTF Blender I/O v4.2.57",
		"version":"2.0"
	},
	"scene":0,
	"scenes":[
		{
			"name":"Scene",
			"nodes":[
				5
			]
		}
	],
	"nodes":[
		{
			"mesh":0,
			"name":"base"
		},
		{
			"mesh":1,
			"name":"frame"
		},
		{
			"children":[
				0,
				1
			],
			"name":"1"
		},
		{
			"mesh":2,
			"name":"mirror"
		},
		{
			"children":[
				3
			],
			"name":"2"
		},
		{
			"children":[
				2,
				4
			],
			"name":"root"
		}
	],
	"materials":[
		{
			"doubleSided":true,
			"name":"default",
			"normalTexture":{
				"index":0
			},
			"occlusionTexture":{
				"index":1
			},
			"pbrMetallicRoughness":{
				"baseColorTexture":{
					"index":2
				},
				"metallicRoughnessTexture":{
					"index":1
				}
			}
		}
	],
	"meshes":[
		{
			"name":"1_default_0",
			"primitives":[
				{
					"attributes":{
						"POSITION":0,
						"NORMAL":1,
						"TEXCOORD_0":2
					},
					"indices":3,
					"material":0
				}
			]
		},
		{
			"name":"2_default_0",
			"primitives":[
				{
					"attributes":{
						"POSITION":4,
						"NORMAL":5,
						"TEXCOORD_0":6
					},
					"indices":7,
					"material":0
				}
			]
		},
		{
			"name":"2_default_0.001",
			"primitives":[
				{
					"attributes":{
						"POSITION":8,
						"NORMAL":9,
						"TEXCOORD_0":10
					},
					"indices":11,
					"material":0
				}
			]
		}
	],
	"textures":[
		{
			"sampler":0,
			"source":0
		},
		{
			"sampler":0,
			"source":1
		},
		{
			"sampler":0,
			"source":2
		}
	],
	"images":[
		{
			"mimeType":"image/png",
			"name":"default_normal",
			"uri":"default_normal.png"
		},
		{
			"mimeType":"image/png",
			"name":"default_metallicRoughness",
			"uri":"default_metallicRoughness.png"
		},
		{
			"mimeType":"image/png",
			"name":"default_baseColor",
			"uri":"default_baseColor.png"
		}
	],
	"accessors":[
		{
			"bufferView":0,
			"componentType":5126,
			"count":64482,
			"max":[
				153.72610473632812,
				427.9269104003906,
				109.28489685058594
			],
			"min":[
				-153.72610473632812,
				-27.431800842285156,
				-109.28489685058594
			],
			"type":"VEC3"
		},
		{
			"bufferView":1,
			"componentType":5126,
			"count":64482,
			"type":"VEC3"
		},
		{
			"bufferView":2,
			"componentType":5126,
			"count":64482,
			"type":"VEC2"
		},
		{
			"bufferView":3,
			"componentType":5123,
			"count":338712,
			"type":"SCALAR"
		},
		{
			"bufferView":4,
			"componentType":5126,
			"count":4111,
			"max":[
				111.5,
				590.7244262695312,
				44.89793014526367
			],
			"min":[
				-111.5,
				60.87253952026367,
				-40.810298919677734
			],
			"type":"VEC3"
		},
		{
			"bufferView":5,
			"componentType":5126,
			"count":4111,
			"type":"VEC3"
		},
		{
			"bufferView":6,
			"componentType":5126,
			"count":4111,
			"type":"VEC2"
		},
		{
			"bufferView":7,
			"componentType":5123,
			"count":19860,
			"type":"SCALAR"
		},
		{
			"bufferView":8,
			"componentType":5126,
			"count":189,
			"max":[
				90.18000030517578,
				568.7332763671875,
				42.771541595458984
			],
			"min":[
				-90.18000030517578,
				83.17505645751953,
				-15.937126159667969
			],
			"type":"VEC3"
		},
		{
			"bufferView":9,
			"componentType":5126,
			"count":189,
			"type":"VEC3"
		},
		{
			"bufferView":10,
			"componentType":5126,
			"count":189,
			"type":"VEC2"
		},
		{
			"bufferView":11,
			"componentType":5123,
			"count":762,
			"type":"SCALAR"
		}
	],
	"bufferViews":[
		{
			"buffer":0,
			"byteLength":773784,
			"byteOffset":0,
			"target":34962
		},
		{
			"buffer":0,
			"byteLength":773784,
			"byteOffset":773784,
			"target":34962
		},
		{
			"buffer":0,
			"byteLength":515856,
			"byteOffset":1547568,
			"target":34962
		},
		{
			"buffer":0,
			"byteLength":677424,
			"byteOffset":2063424,
			"target":34963
		},
		{
			"buffer":0,
			"byteLength":49332,
			"byteOffset":2740848,
			"target":34962
		},
		{
			"buffer":0,
			"byteLength":49332,
			"byteOffset":2790180,
			"target":34962
		},
		{
			"buffer":0,
			"byteLength":32888,
			"byteOffset":2839512,
			"target":34962
		},
		{
			"buffer":0,
			"byteLength":39720,
			"byteOffset":2872400,
			"target":34963
		},
		{
			"buffer":0,
			"byteLength":2268,
			"byteOffset":2912120,
			"target":34962
		},
		{
			"buffer":0,
			"byteLength":2268,
			"byteOffset":2914388,
			"target":34962
		},
		{
			"buffer":0,
			"byteLength":1512,
			"byteOffset":2916656,
			"target":34962
		},
		{
			"buffer":0,
			"byteLength":1524,
			"byteOffset":2918168,
			"target":34963
		}
	],
	"samplers":[
		{
			"magFilter":9729,
			"minFilter":9987
		}
	],
	"buffers":[
		{
			"byteLength":2919692,
			"uri":"mirror.bin"
		}
	]
}
